<?xml version="1.0" standalone="no"?>
<!DOCTYPE svg PUBLIC "-//W3C//DTD SVG 20010904//EN"
 "http://www.w3.org/TR/2001/REC-SVG-20010904/DTD/svg10.dtd">
<svg version="1.0" xmlns="http://www.w3.org/2000/svg"
 width="640.000000pt" height="218.000000pt" viewBox="0 0 640.000000 218.000000"
 preserveAspectRatio="xMidYMid meet">

<g transform="translate(0.000000,218.000000) scale(0.100000,-0.100000)"
fill="#000000" stroke="none">
<path d="M5827 1927 c-83 -24 -87 -33 -87 -169 l0 -118 25 0 c14 0 40 10 56
23 25 18 44 22 104 22 65 0 78 -3 116 -30 61 -43 88 -102 89 -192 0 -112 -51
-200 -127 -219 -14 -4 -125 -5 -247 -2 -294 8 -404 1 -417 -23 -6 -12 -9 -229
-9 -586 0 -511 2 -569 17 -585 14 -16 33 -18 143 -18 90 0 131 4 138 13 6 7
11 173 14 459 1 245 5 448 8 451 3 3 90 7 194 10 175 5 191 6 205 25 9 11 33
27 54 36 60 25 180 147 216 221 65 131 67 294 6 423 -47 99 -139 191 -232 233
-80 37 -189 47 -266 26z"/>
<path d="M1760 1110 l0 -340 55 0 c52 0 55 1 55 25 0 31 1 31 46 0 20 -13 52
-27 70 -31 77 -14 176 57 202 145 19 60 15 172 -7 223 -22 53 -82 107 -119
109 -62 4 -99 -4 -132 -27 l-35 -24 -3 130 -3 130 -64 0 -65 0 0 -340z m270
13 c97 -87 29 -298 -80 -253 -42 17 -60 57 -60 130 0 127 69 187 140 123z"/>
<path d="M3110 1325 l0 -124 -37 21 c-86 52 -200 12 -248 -86 -48 -98 -32
-257 33 -319 68 -65 163 -72 227 -15 l35 30 6 -31 c6 -30 8 -31 60 -31 l54 0
0 340 0 340 -65 0 -65 0 0 -125z m-56 -185 c37 -14 56 -59 56 -135 0 -76 -19
-121 -57 -136 -38 -14 -85 5 -108 43 -38 64 -15 200 38 226 28 14 40 14 71 2z"/>
<path d="M1001 1414 c-25 -32 -26 -52 -5 -82 21 -31 87 -31 108 0 51 73 -48
151 -103 82z"/>
<path d="M4440 1341 c-54 -16 -55 -17 -58 -58 -3 -39 -5 -42 -35 -45 -34 -3
-45 -26 -33 -73 5 -18 12 -23 34 -22 l27 2 5 -150 c5 -157 12 -183 54 -210 31
-21 114 -29 149 -16 26 10 28 15 25 53 -3 40 -5 43 -36 44 -59 3 -63 13 -60
153 l3 126 30 1 c66 2 65 1 65 49 l0 45 -50 0 -50 0 0 54 c0 30 -3 57 -7 59
-5 3 -33 -3 -63 -12z"/>
<path d="M657 1235 c-22 -7 -49 -23 -62 -35 l-23 -22 -4 28 c-3 28 -5 29 -57
29 l-54 0 2 -310 c0 -171 1 -316 1 -323 0 -10 16 -12 63 -10 l62 3 1 105 c1
58 4 105 5 104 2 0 17 -9 34 -20 47 -31 123 -26 176 11 67 47 94 110 94 215
-1 67 -5 94 -22 125 -28 53 -72 93 -114 105 -43 13 -56 12 -102 -5z m88 -135
c33 -64 27 -161 -13 -209 -9 -12 -34 -24 -54 -27 -30 -5 -41 -2 -62 19 -24 24
-26 33 -26 115 0 74 3 94 20 115 36 45 109 38 135 -13z"/>
<path d="M1440 1238 c-19 -5 -47 -21 -61 -34 l-26 -25 -6 31 c-7 31 -8 31 -59
28 l-53 -3 0 -230 0 -230 63 -3 62 -3 0 147 c0 112 4 154 16 179 29 61 101 64
131 5 9 -17 13 -75 13 -177 l0 -153 66 0 66 0 -4 178 c-3 156 -5 182 -24 217
-33 64 -110 94 -184 73z"/>
<path d="M3467 1235 c-52 -18 -85 -50 -113 -110 -48 -100 -22 -256 51 -313 60
-47 157 -49 208 -4 9 8 20 13 22 10 11 -11 -14 -91 -35 -113 -34 -36 -114 -40
-193 -10 -12 5 -18 -3 -26 -32 -6 -21 -11 -43 -11 -49 0 -30 177 -45 254 -22
52 16 108 72 123 123 7 25 13 133 14 280 l2 240 -53 0 c-48 0 -55 -2 -60 -23
l-5 -24 -19 21 c-18 20 -74 41 -106 41 -8 -1 -32 -7 -53 -15z m146 -116 c13
-17 17 -40 17 -114 0 -89 -1 -95 -26 -114 -47 -37 -102 -24 -130 31 -12 23
-15 50 -12 101 3 64 6 72 37 99 27 24 39 29 65 24 17 -3 39 -16 49 -27z"/>
<path d="M4022 1241 c-99 -25 -165 -120 -165 -239 -1 -91 16 -134 69 -181 45
-40 104 -61 168 -61 46 0 134 19 141 31 3 5 3 24 0 43 l-7 34 -82 -5 c-89 -6
-135 8 -156 46 -25 48 -19 50 133 53 l142 3 3 47 c6 88 -33 175 -93 209 -37
21 -109 30 -153 20z m93 -103 c15 -14 27 -35 28 -53 l2 -30 -82 -3 c-92 -3
-97 1 -68 58 28 54 77 65 120 28z"/>
<path d="M990 1005 l0 -235 65 0 65 0 0 235 0 235 -65 0 -65 0 0 -235z"/>
<path d="M2294 1225 c-4 -9 -5 -89 -2 -178 5 -181 16 -220 72 -260 47 -33 131
-31 179 6 20 15 38 27 40 27 3 0 8 -11 11 -25 6 -23 11 -25 63 -25 l56 0 -7
53 c-3 28 -6 134 -6 235 l0 182 -60 0 -60 0 0 -144 c0 -79 -5 -157 -11 -175
-22 -62 -101 -74 -129 -20 -8 13 -13 81 -14 178 l-1 156 -63 3 c-50 2 -63 0
-68 -13z"/>
<path d="M1520 369 c-46 -72 -67 -126 -52 -141 10 -10 52 27 52 46 0 6 -7 2
-15 -8 -8 -11 -18 -17 -21 -13 -4 4 11 26 34 51 40 43 72 95 72 116 0 28 -35
3 -70 -51z m26 -10 c-36 -53 -45 -44 -11 11 15 23 29 39 32 36 3 -3 -6 -24
-21 -47z"/>
<path d="M2496 395 c-50 -65 -92 -175 -68 -175 11 0 52 44 52 56 0 5 -9 -2
-20 -16 -15 -19 -20 -21 -20 -8 0 9 19 38 43 63 23 26 47 57 54 68 31 55 -1
64 -41 12z m10 -36 c-15 -22 -30 -38 -33 -35 -3 3 6 24 21 47 15 22 30 38 33
35 3 -3 -6 -24 -21 -47z"/>
<path d="M1597 373 c-10 -9 -9 -23 2 -23 5 0 11 7 15 15 5 15 -5 20 -17 8z"/>
<path d="M1996 305 c-29 -31 -39 -74 -20 -82 19 -7 44 15 61 55 23 54 -1 70
-41 27z m19 -34 c-14 -29 -35 -42 -35 -22 0 12 41 63 47 57 2 -2 -3 -18 -12
-35z"/>
<path d="M2201 307 c-20 -20 -22 -21 -15 -2 7 19 7 20 -13 2 -12 -10 -27 -32
-33 -48 -22 -53 -41 -29 -20 25 14 39 -4 31 -23 -9 -9 -19 -21 -35 -27 -35
-15 0 -12 8 11 41 22 31 12 40 -13 12 -26 -29 -32 -62 -13 -69 9 -4 21 -2 27
4 8 8 15 7 25 -6 12 -16 16 -14 46 20 23 28 37 36 53 32 12 -3 26 1 33 10 10
12 9 14 -11 8 -21 -5 -22 -4 -9 12 21 25 8 28 -18 3z"/>
<path d="M2345 282 c-37 -66 -65 -132 -64 -151 0 -9 11 7 23 35 17 37 31 53
49 58 26 6 73 69 63 85 -3 5 -15 11 -26 14 -15 4 -25 -5 -45 -41z m38 -12 c-9
-16 -23 -30 -30 -30 -11 0 -10 6 2 30 9 17 22 30 31 30 13 0 13 -4 -3 -30z"/>
<path d="M2521 304 c-11 -14 -23 -35 -27 -46 -7 -23 9 -44 26 -33 9 6 9 10 -1
16 -12 7 -12 13 1 35 22 41 46 45 26 5 -13 -24 -14 -36 -6 -51 14 -27 24 -25
56 8 15 15 23 21 20 14 -9 -14 2 -52 14 -52 4 0 6 9 3 20 -3 11 4 36 16 55 27
46 26 51 -3 31 -18 -11 -26 -12 -29 -3 -2 6 -14 -7 -26 -30 -23 -46 -49 -60
-36 -20 4 12 9 34 12 50 7 36 -18 37 -46 1z"/>
<path d="M1562 307 c-18 -21 -43 -87 -34 -87 4 0 18 21 30 46 23 47 25 66 4
41z"/>
<path d="M1597 285 c-9 -20 -17 -42 -17 -50 0 -21 26 -19 42 3 21 29 48 35 48
11 0 -11 7 -22 16 -26 17 -6 65 25 72 48 3 8 -5 5 -20 -8 -23 -22 -48 -30 -48
-17 0 3 11 15 25 26 27 21 33 48 11 48 -7 0 -19 -6 -25 -14 -6 -8 -21 -16 -32
-19 -16 -4 -19 -2 -14 14 12 36 -10 19 -27 -23 -10 -23 -21 -39 -24 -35 -4 3
-1 20 6 37 18 43 7 47 -13 5z m123 5 c0 -5 -5 -10 -11 -10 -5 0 -7 5 -4 10 3
6 8 10 11 10 2 0 4 -4 4 -10z"/>
<path d="M1920 288 c-14 -18 -23 -38 -22 -45 1 -6 -16 -24 -38 -40 -42 -30
-58 -59 -42 -75 16 -16 41 -2 60 33 9 18 32 49 50 69 17 21 32 41 32 46 0 4
-7 -1 -15 -12 -19 -25 -19 -11 0 26 21 40 5 38 -25 -2z m-50 -106 c0 -5 -6
-17 -14 -28 -19 -25 -31 -12 -14 15 13 21 28 28 28 13z"/>
<path d="M1871 284 c-24 -31 -27 -54 -7 -54 18 0 30 17 15 22 -6 2 -2 15 11
31 12 15 17 27 11 27 -5 0 -19 -12 -30 -26z"/>
</g>
</svg>
